/* XPM */
static char * close_active_xpm[] = {
"58 28 4 1",
" 	c #0078D7",
".	c #CBE0F1",
"+	c #5EA8E3",
"@	c #FFFFFF",
"                                                          ",
"                                                          ",
"                                                          ",
"                                                          ",
"                                                          ",
"                                                          ",
"                                                          ",
"                                                          ",
"                      .+        +.                        ",
"                      +@+      +@+                        ",
"                       +@+    +@+                         ",
"                        +@+  +@+                          ",
"                         +@++@+                           ",
"                          +@@+                            ",
"                          +@@+                            ",
"                         +@++@+                           ",
"                        +@+  +@+                          ",
"                       +@+    +@+                         ",
"                      +@+      +@+                        ",
"                      .+        +.                        ",
"                                                          ",
"                                                          ",
"                                                          ",
"                                                          ",
"                                                          ",
"                                                          ",
"                                                          ",
"                                                          "};
