/* XPM */
static char * maximize_toggled_prelight_xpm[] = {
"58 28 2 1",
" 	c #1A86DB",
".	c #FFFFFF",
"                                                          ",
"                                                          ",
"                                                          ",
"                                                          ",
"                                                          ",
"                                                          ",
"                                                          ",
"                                                          ",
"                        ..........                        ",
"                        .        .                        ",
"                      .......... .                        ",
"                      .        . .                        ",
"                      .        . .                        ",
"                      .        . .                        ",
"                      .        . .                        ",
"                      .        . .                        ",
"                      .        . .                        ",
"                      .        ...                        ",
"                      .        .                          ",
"                      ..........                          ",
"                                                          ",
"                                                          ",
"                                                          ",
"                                                          ",
"                                                          ",
"                                                          ",
"                                                          ",
"                                                          "};
