/* XPM */
static char * top_right_inactive_xpm[] = {
"2 30 2 1",
" 	c #2B2B2B",
".	c #4F4F4F",
" .",
" .",
" .",
" .",
" .",
" .",
" .",
" .",
" .",
" .",
" .",
" .",
" .",
" .",
" .",
" .",
" .",
" .",
" .",
" .",
" .",
" .",
" .",
" .",
" .",
" .",
" .",
" .",
" .",
" ."};
