/* XPM */
static char * top_right_inactive_xpm[] = {
"2 38 3 1",
" 	c None",
".	c #4F4F4F",
"+	c #2B2B2B",
"..",
"+.",
"+.",
"+.",
"+.",
"+.",
"+.",
"+.",
"+.",
"+.",
"+.",
"+.",
"+.",
"+.",
"+.",
"+.",
"+.",
"+.",
"+.",
"+.",
"+.",
"+.",
"+.",
"+.",
"+.",
"+.",
"+.",
"+.",
"+.",
"+.",
"+.",
"+.",
"+.",
"+.",
"+.",
"+.",
"+.",
"+."};
